<mxfile host="app.diagrams.net" agent="Mozilla/5.0 (Windows NT 10.0; Win64; x64) AppleWebKit/537.36 (KHTML, like Gecko) Chrome/137.0.0.0 Safari/537.36" version="27.1.6">
  <diagram name="페이지-1" id="cvqbo_P_faDh5lB7a5dQ">
    <mxGraphModel dx="1426" dy="777" grid="1" gridSize="10" guides="1" tooltips="1" connect="1" arrows="1" fold="1" page="1" pageScale="1" pageWidth="2339" pageHeight="3300" math="0" shadow="0">
      <root>
        <mxCell id="0" />
        <mxCell id="1" parent="0" />
        <mxCell id="qStdtEXJi0ipb3xtx4QY-9" value="AWS Cloud" style="points=[[0,0],[0.25,0],[0.5,0],[0.75,0],[1,0],[1,0.25],[1,0.5],[1,0.75],[1,1],[0.75,1],[0.5,1],[0.25,1],[0,1],[0,0.75],[0,0.5],[0,0.25]];outlineConnect=0;gradientColor=none;html=1;whiteSpace=wrap;fontSize=12;fontStyle=0;container=1;pointerEvents=0;collapsible=0;recursiveResize=0;shape=mxgraph.aws4.group;grIcon=mxgraph.aws4.group_aws_cloud_alt;strokeColor=#232F3E;fillColor=none;verticalAlign=top;align=left;spacingLeft=30;fontColor=#232F3E;dashed=0;" parent="1" vertex="1">
          <mxGeometry x="240" y="92" width="960" height="680" as="geometry" />
        </mxCell>
        <mxCell id="qStdtEXJi0ipb3xtx4QY-8" value="Region" style="points=[[0,0],[0.25,0],[0.5,0],[0.75,0],[1,0],[1,0.25],[1,0.5],[1,0.75],[1,1],[0.75,1],[0.5,1],[0.25,1],[0,1],[0,0.75],[0,0.5],[0,0.25]];outlineConnect=0;gradientColor=none;html=1;whiteSpace=wrap;fontSize=12;fontStyle=0;container=1;pointerEvents=0;collapsible=0;recursiveResize=0;shape=mxgraph.aws4.group;grIcon=mxgraph.aws4.group_region;strokeColor=#00A4A6;fillColor=none;verticalAlign=top;align=left;spacingLeft=30;fontColor=#147EBA;" parent="qStdtEXJi0ipb3xtx4QY-9" vertex="1">
          <mxGeometry x="40" y="30" width="900" height="610" as="geometry" />
        </mxCell>
        <mxCell id="qStdtEXJi0ipb3xtx4QY-11" value="VPC" style="points=[[0,0],[0.25,0],[0.5,0],[0.75,0],[1,0],[1,0.25],[1,0.5],[1,0.75],[1,1],[0.75,1],[0.5,1],[0.25,1],[0,1],[0,0.75],[0,0.5],[0,0.25]];outlineConnect=0;gradientColor=none;html=1;whiteSpace=wrap;fontSize=12;fontStyle=0;container=1;pointerEvents=0;collapsible=0;recursiveResize=0;shape=mxgraph.aws4.group;grIcon=mxgraph.aws4.group_vpc2;strokeColor=#8C4FFF;fillColor=none;verticalAlign=top;align=left;spacingLeft=30;fontColor=#AAB7B8;dashed=0;" parent="qStdtEXJi0ipb3xtx4QY-8" vertex="1">
          <mxGeometry x="40" y="120" width="800" height="440" as="geometry" />
        </mxCell>
        <mxCell id="qStdtEXJi0ipb3xtx4QY-12" value="Availability Zone&lt;div&gt;AZ-a&lt;/div&gt;" style="fillColor=none;strokeColor=#147EBA;dashed=1;verticalAlign=top;fontStyle=0;fontColor=#147EBA;whiteSpace=wrap;html=1;" parent="qStdtEXJi0ipb3xtx4QY-11" vertex="1">
          <mxGeometry x="40" y="50" width="720" height="160" as="geometry" />
        </mxCell>
        <mxCell id="qStdtEXJi0ipb3xtx4QY-13" value="Public subnet&lt;div&gt;(10.0.1.0/24)&lt;/div&gt;" style="points=[[0,0],[0.25,0],[0.5,0],[0.75,0],[1,0],[1,0.25],[1,0.5],[1,0.75],[1,1],[0.75,1],[0.5,1],[0.25,1],[0,1],[0,0.75],[0,0.5],[0,0.25]];outlineConnect=0;gradientColor=none;html=1;whiteSpace=wrap;fontSize=12;fontStyle=0;container=1;pointerEvents=0;collapsible=0;recursiveResize=0;shape=mxgraph.aws4.group;grIcon=mxgraph.aws4.group_security_group;grStroke=0;strokeColor=#7AA116;fillColor=#F2F6E8;verticalAlign=top;align=left;spacingLeft=30;fontColor=#248814;dashed=0;" parent="qStdtEXJi0ipb3xtx4QY-11" vertex="1">
          <mxGeometry x="60" y="57.5" width="280" height="145" as="geometry" />
        </mxCell>
        <mxCell id="qStdtEXJi0ipb3xtx4QY-31" value="EC2" style="text;html=1;align=center;verticalAlign=middle;resizable=0;points=[];autosize=1;strokeColor=none;fillColor=none;" parent="qStdtEXJi0ipb3xtx4QY-13" vertex="1">
          <mxGeometry x="36" y="120" width="50" height="30" as="geometry" />
        </mxCell>
        <mxCell id="qStdtEXJi0ipb3xtx4QY-32" value="Security group" style="fillColor=none;strokeColor=#DD3522;verticalAlign=top;fontStyle=0;fontColor=#DD3522;whiteSpace=wrap;html=1;" parent="qStdtEXJi0ipb3xtx4QY-13" vertex="1">
          <mxGeometry x="150" y="12.5" width="120" height="70" as="geometry" />
        </mxCell>
        <mxCell id="qStdtEXJi0ipb3xtx4QY-35" value="SSH, HTTP, FastAPI" style="text;html=1;align=center;verticalAlign=middle;resizable=0;points=[];autosize=1;strokeColor=none;fillColor=none;" parent="qStdtEXJi0ipb3xtx4QY-13" vertex="1">
          <mxGeometry x="145" y="32.5" width="130" height="30" as="geometry" />
        </mxCell>
        <mxCell id="qStdtEXJi0ipb3xtx4QY-36" value="22, 80, 8000" style="text;html=1;align=center;verticalAlign=middle;resizable=0;points=[];autosize=1;strokeColor=none;fillColor=none;" parent="qStdtEXJi0ipb3xtx4QY-13" vertex="1">
          <mxGeometry x="165" y="52.5" width="90" height="30" as="geometry" />
        </mxCell>
        <mxCell id="qStdtEXJi0ipb3xtx4QY-19" value="Availability Zone&lt;div&gt;AZ-b&lt;/div&gt;" style="fillColor=none;strokeColor=#147EBA;dashed=1;verticalAlign=top;fontStyle=0;fontColor=#147EBA;whiteSpace=wrap;html=1;" parent="qStdtEXJi0ipb3xtx4QY-11" vertex="1">
          <mxGeometry x="40" y="250" width="720" height="160" as="geometry" />
        </mxCell>
        <mxCell id="qStdtEXJi0ipb3xtx4QY-23" value="" style="sketch=0;points=[[0,0,0],[0.25,0,0],[0.5,0,0],[0.75,0,0],[1,0,0],[0,1,0],[0.25,1,0],[0.5,1,0],[0.75,1,0],[1,1,0],[0,0.25,0],[0,0.5,0],[0,0.75,0],[1,0.25,0],[1,0.5,0],[1,0.75,0]];outlineConnect=0;fontColor=#232F3E;fillColor=#ED7100;strokeColor=#ffffff;dashed=0;verticalLabelPosition=bottom;verticalAlign=top;align=center;html=1;fontSize=12;fontStyle=0;aspect=fixed;shape=mxgraph.aws4.resourceIcon;resIcon=mxgraph.aws4.ec2;" parent="qStdtEXJi0ipb3xtx4QY-11" vertex="1">
          <mxGeometry x="80" y="100" width="80" height="80" as="geometry" />
        </mxCell>
        <mxCell id="qStdtEXJi0ipb3xtx4QY-34" value="Private subnet&lt;div&gt;(10.0.4.0/24)&lt;/div&gt;" style="points=[[0,0],[0.25,0],[0.5,0],[0.75,0],[1,0],[1,0.25],[1,0.5],[1,0.75],[1,1],[0.75,1],[0.5,1],[0.25,1],[0,1],[0,0.75],[0,0.5],[0,0.25]];outlineConnect=0;gradientColor=none;html=1;whiteSpace=wrap;fontSize=12;fontStyle=0;container=1;pointerEvents=0;collapsible=0;recursiveResize=0;shape=mxgraph.aws4.group;grIcon=mxgraph.aws4.group_security_group;grStroke=0;strokeColor=#00A4A6;fillColor=#E6F6F7;verticalAlign=top;align=left;spacingLeft=30;fontColor=#147EBA;dashed=0;" parent="qStdtEXJi0ipb3xtx4QY-11" vertex="1">
          <mxGeometry x="460" y="60" width="280" height="140" as="geometry" />
        </mxCell>
        <mxCell id="qStdtEXJi0ipb3xtx4QY-40" value="Security group" style="fillColor=none;strokeColor=#DD3522;verticalAlign=top;fontStyle=0;fontColor=#DD3522;whiteSpace=wrap;html=1;" parent="qStdtEXJi0ipb3xtx4QY-34" vertex="1">
          <mxGeometry x="150" y="10" width="120" height="70" as="geometry" />
        </mxCell>
        <mxCell id="qStdtEXJi0ipb3xtx4QY-42" value="" style="sketch=0;points=[[0,0,0],[0.25,0,0],[0.5,0,0],[0.75,0,0],[1,0,0],[0,1,0],[0.25,1,0],[0.5,1,0],[0.75,1,0],[1,1,0],[0,0.25,0],[0,0.5,0],[0,0.75,0],[1,0.25,0],[1,0.5,0],[1,0.75,0]];outlineConnect=0;fontColor=#232F3E;fillColor=#C925D1;strokeColor=#ffffff;dashed=0;verticalLabelPosition=bottom;verticalAlign=top;align=center;html=1;fontSize=12;fontStyle=0;aspect=fixed;shape=mxgraph.aws4.resourceIcon;resIcon=mxgraph.aws4.database;" parent="qStdtEXJi0ipb3xtx4QY-34" vertex="1">
          <mxGeometry x="27" y="40" width="80" height="80" as="geometry" />
        </mxCell>
        <mxCell id="qStdtEXJi0ipb3xtx4QY-44" value="3306" style="text;html=1;align=center;verticalAlign=middle;resizable=0;points=[];autosize=1;strokeColor=none;fillColor=none;" parent="qStdtEXJi0ipb3xtx4QY-34" vertex="1">
          <mxGeometry x="185" y="50" width="50" height="30" as="geometry" />
        </mxCell>
        <mxCell id="qStdtEXJi0ipb3xtx4QY-45" value="MySQL" style="text;html=1;align=center;verticalAlign=middle;resizable=0;points=[];autosize=1;strokeColor=none;fillColor=none;" parent="qStdtEXJi0ipb3xtx4QY-34" vertex="1">
          <mxGeometry x="180" y="30" width="60" height="30" as="geometry" />
        </mxCell>
        <mxCell id="qStdtEXJi0ipb3xtx4QY-43" value="RDS(active)" style="text;html=1;align=center;verticalAlign=middle;resizable=0;points=[];autosize=1;strokeColor=none;fillColor=none;" parent="qStdtEXJi0ipb3xtx4QY-11" vertex="1">
          <mxGeometry x="482" y="174.5" width="90" height="30" as="geometry" />
        </mxCell>
        <mxCell id="qStdtEXJi0ipb3xtx4QY-51" value="Private subnet&lt;div&gt;(10.0.5.0/24)&lt;/div&gt;" style="points=[[0,0],[0.25,0],[0.5,0],[0.75,0],[1,0],[1,0.25],[1,0.5],[1,0.75],[1,1],[0.75,1],[0.5,1],[0.25,1],[0,1],[0,0.75],[0,0.5],[0,0.25]];outlineConnect=0;gradientColor=none;html=1;whiteSpace=wrap;fontSize=12;fontStyle=0;container=1;pointerEvents=0;collapsible=0;recursiveResize=0;shape=mxgraph.aws4.group;grIcon=mxgraph.aws4.group_security_group;grStroke=0;strokeColor=#00A4A6;fillColor=#E6F6F7;verticalAlign=top;align=left;spacingLeft=30;fontColor=#147EBA;dashed=0;" parent="qStdtEXJi0ipb3xtx4QY-11" vertex="1">
          <mxGeometry x="460" y="260" width="280" height="140" as="geometry" />
        </mxCell>
        <mxCell id="qStdtEXJi0ipb3xtx4QY-52" value="Security group" style="fillColor=none;strokeColor=#DD3522;verticalAlign=top;fontStyle=0;fontColor=#DD3522;whiteSpace=wrap;html=1;" parent="qStdtEXJi0ipb3xtx4QY-51" vertex="1">
          <mxGeometry x="150" y="10" width="120" height="70" as="geometry" />
        </mxCell>
        <mxCell id="qStdtEXJi0ipb3xtx4QY-53" value="" style="sketch=0;points=[[0,0,0],[0.25,0,0],[0.5,0,0],[0.75,0,0],[1,0,0],[0,1,0],[0.25,1,0],[0.5,1,0],[0.75,1,0],[1,1,0],[0,0.25,0],[0,0.5,0],[0,0.75,0],[1,0.25,0],[1,0.5,0],[1,0.75,0]];outlineConnect=0;fontColor=#232F3E;fillColor=#C925D1;strokeColor=#ffffff;dashed=0;verticalLabelPosition=bottom;verticalAlign=top;align=center;html=1;fontSize=12;fontStyle=0;aspect=fixed;shape=mxgraph.aws4.resourceIcon;resIcon=mxgraph.aws4.database;" parent="qStdtEXJi0ipb3xtx4QY-51" vertex="1">
          <mxGeometry x="27" y="40" width="80" height="80" as="geometry" />
        </mxCell>
        <mxCell id="qStdtEXJi0ipb3xtx4QY-54" value="3306" style="text;html=1;align=center;verticalAlign=middle;resizable=0;points=[];autosize=1;strokeColor=none;fillColor=none;" parent="qStdtEXJi0ipb3xtx4QY-51" vertex="1">
          <mxGeometry x="185" y="50" width="50" height="30" as="geometry" />
        </mxCell>
        <mxCell id="qStdtEXJi0ipb3xtx4QY-55" value="MySQL" style="text;html=1;align=center;verticalAlign=middle;resizable=0;points=[];autosize=1;strokeColor=none;fillColor=none;" parent="qStdtEXJi0ipb3xtx4QY-51" vertex="1">
          <mxGeometry x="180" y="30" width="60" height="30" as="geometry" />
        </mxCell>
        <mxCell id="qStdtEXJi0ipb3xtx4QY-58" value="RDS(standby)" style="text;html=1;align=center;verticalAlign=middle;resizable=0;points=[];autosize=1;strokeColor=none;fillColor=none;" parent="qStdtEXJi0ipb3xtx4QY-11" vertex="1">
          <mxGeometry x="481" y="376" width="100" height="30" as="geometry" />
        </mxCell>
        <mxCell id="qStdtEXJi0ipb3xtx4QY-74" value="" style="endArrow=classic;html=1;rounded=0;exitX=1;exitY=0.75;exitDx=0;exitDy=0;exitPerimeter=0;entryX=0;entryY=0.75;entryDx=0;entryDy=0;entryPerimeter=0;" parent="qStdtEXJi0ipb3xtx4QY-11" source="qStdtEXJi0ipb3xtx4QY-23" target="qStdtEXJi0ipb3xtx4QY-42" edge="1">
          <mxGeometry width="50" height="50" relative="1" as="geometry">
            <mxPoint x="375" y="174.5" as="sourcePoint" />
            <mxPoint x="425" y="124.5" as="targetPoint" />
          </mxGeometry>
        </mxCell>
        <mxCell id="qStdtEXJi0ipb3xtx4QY-20" value="" style="sketch=0;points=[[0,0,0],[0.25,0,0],[0.5,0,0],[0.75,0,0],[1,0,0],[0,1,0],[0.25,1,0],[0.5,1,0],[0.75,1,0],[1,1,0],[0,0.25,0],[0,0.5,0],[0,0.75,0],[1,0.25,0],[1,0.5,0],[1,0.75,0]];outlineConnect=0;fontColor=#232F3E;fillColor=#7AA116;strokeColor=#ffffff;dashed=0;verticalLabelPosition=bottom;verticalAlign=top;align=center;html=1;fontSize=12;fontStyle=0;aspect=fixed;shape=mxgraph.aws4.resourceIcon;resIcon=mxgraph.aws4.s3;" parent="qStdtEXJi0ipb3xtx4QY-8" vertex="1">
          <mxGeometry x="400" y="10" width="80" height="80" as="geometry" />
        </mxCell>
        <mxCell id="qStdtEXJi0ipb3xtx4QY-17" value="IGW&lt;div&gt;&lt;br&gt;&lt;/div&gt;" style="sketch=0;outlineConnect=0;fontColor=#232F3E;gradientColor=none;strokeColor=#232F3E;fillColor=#ffffff;dashed=0;verticalLabelPosition=bottom;verticalAlign=top;align=center;html=1;fontSize=12;fontStyle=0;aspect=fixed;shape=mxgraph.aws4.resourceIcon;resIcon=mxgraph.aws4.internet_gateway;" parent="qStdtEXJi0ipb3xtx4QY-8" vertex="1">
          <mxGeometry x="820" y="300" width="40" height="40" as="geometry" />
        </mxCell>
        <mxCell id="qStdtEXJi0ipb3xtx4QY-27" value="S3(React App)" style="text;html=1;align=center;verticalAlign=middle;resizable=0;points=[];autosize=1;strokeColor=none;fillColor=none;" parent="qStdtEXJi0ipb3xtx4QY-8" vertex="1">
          <mxGeometry x="390" y="90" width="100" height="30" as="geometry" />
        </mxCell>
        <mxCell id="qStdtEXJi0ipb3xtx4QY-73" value="" style="endArrow=classic;html=1;rounded=0;exitX=0;exitY=0.5;exitDx=0;exitDy=0;exitPerimeter=0;" parent="qStdtEXJi0ipb3xtx4QY-8" source="qStdtEXJi0ipb3xtx4QY-20" target="qStdtEXJi0ipb3xtx4QY-23" edge="1">
          <mxGeometry width="50" height="50" relative="1" as="geometry">
            <mxPoint x="210" y="80" as="sourcePoint" />
            <mxPoint x="260" y="30" as="targetPoint" />
          </mxGeometry>
        </mxCell>
        <mxCell id="qStdtEXJi0ipb3xtx4QY-10" style="edgeStyle=orthogonalEdgeStyle;rounded=0;orthogonalLoop=1;jettySize=auto;html=1;exitX=0.5;exitY=1;exitDx=0;exitDy=0;" parent="1" source="qStdtEXJi0ipb3xtx4QY-9" target="qStdtEXJi0ipb3xtx4QY-9" edge="1">
          <mxGeometry relative="1" as="geometry" />
        </mxCell>
        <mxCell id="qStdtEXJi0ipb3xtx4QY-14" value="users(client)" style="sketch=0;outlineConnect=0;gradientColor=none;fontColor=#545B64;strokeColor=none;fillColor=#879196;dashed=0;verticalLabelPosition=bottom;verticalAlign=top;align=center;html=1;fontSize=12;fontStyle=0;aspect=fixed;shape=mxgraph.aws4.illustration_users;pointerEvents=1" parent="1" vertex="1">
          <mxGeometry x="1240" y="363" width="100" height="100" as="geometry" />
        </mxCell>
        <mxCell id="qStdtEXJi0ipb3xtx4QY-61" value="user-a(DevOps)&lt;br&gt;AmazonS3FullAccess" style="sketch=0;outlineConnect=0;gradientColor=none;fontColor=#545B64;strokeColor=none;fillColor=#879196;dashed=0;verticalLabelPosition=bottom;verticalAlign=top;align=center;html=1;fontSize=12;fontStyle=0;aspect=fixed;shape=mxgraph.aws4.illustration_desktop;pointerEvents=1" parent="1" vertex="1">
          <mxGeometry x="100" y="212" width="100" height="91" as="geometry" />
        </mxCell>
        <mxCell id="qStdtEXJi0ipb3xtx4QY-62" value="user-b(DevOps)&lt;br&gt;AmazonS3ReadOnlyAccess" style="sketch=0;outlineConnect=0;gradientColor=none;fontColor=#545B64;strokeColor=none;fillColor=#879196;dashed=0;verticalLabelPosition=bottom;verticalAlign=top;align=center;html=1;fontSize=12;fontStyle=0;aspect=fixed;shape=mxgraph.aws4.illustration_desktop;pointerEvents=1" parent="1" vertex="1">
          <mxGeometry x="100" y="372" width="100" height="91" as="geometry" />
        </mxCell>
        <mxCell id="qStdtEXJi0ipb3xtx4QY-63" value="test-user(DevOps)&lt;br&gt;AdministratorAccess" style="sketch=0;outlineConnect=0;gradientColor=none;fontColor=#545B64;strokeColor=none;fillColor=#879196;dashed=0;verticalLabelPosition=bottom;verticalAlign=top;align=center;html=1;fontSize=12;fontStyle=0;aspect=fixed;shape=mxgraph.aws4.illustration_desktop;pointerEvents=1" parent="1" vertex="1">
          <mxGeometry x="100" y="532" width="100" height="91" as="geometry" />
        </mxCell>
        <mxCell id="qStdtEXJi0ipb3xtx4QY-66" value="" style="curved=1;endArrow=classic;html=1;rounded=0;" parent="1" source="qStdtEXJi0ipb3xtx4QY-14" target="qStdtEXJi0ipb3xtx4QY-20" edge="1">
          <mxGeometry width="50" height="50" relative="1" as="geometry">
            <mxPoint x="1280" y="262" as="sourcePoint" />
            <mxPoint x="900" y="172" as="targetPoint" />
            <Array as="points">
              <mxPoint x="1330" y="262" />
              <mxPoint x="1280" y="212" />
            </Array>
          </mxGeometry>
        </mxCell>
        <mxCell id="qStdtEXJi0ipb3xtx4QY-75" value="" style="endArrow=classic;html=1;rounded=0;entryX=0;entryY=0.75;entryDx=0;entryDy=0;entryPerimeter=0;" parent="1" source="qStdtEXJi0ipb3xtx4QY-63" target="qStdtEXJi0ipb3xtx4QY-23" edge="1">
          <mxGeometry width="50" height="50" relative="1" as="geometry">
            <mxPoint x="260" y="502" as="sourcePoint" />
            <mxPoint x="310" y="452" as="targetPoint" />
          </mxGeometry>
        </mxCell>
        <mxCell id="qStdtEXJi0ipb3xtx4QY-77" value="" style="endArrow=none;html=1;rounded=0;" parent="1" edge="1">
          <mxGeometry width="50" height="50" relative="1" as="geometry">
            <mxPoint x="1400" y="40" as="sourcePoint" />
            <mxPoint x="40" y="42" as="targetPoint" />
          </mxGeometry>
        </mxCell>
        <mxCell id="qStdtEXJi0ipb3xtx4QY-78" value="" style="endArrow=none;html=1;rounded=0;" parent="1" edge="1">
          <mxGeometry width="50" height="50" relative="1" as="geometry">
            <mxPoint x="1400" y="840" as="sourcePoint" />
            <mxPoint x="40" y="842" as="targetPoint" />
          </mxGeometry>
        </mxCell>
        <mxCell id="qStdtEXJi0ipb3xtx4QY-79" value="" style="endArrow=none;html=1;rounded=0;" parent="1" edge="1">
          <mxGeometry width="50" height="50" relative="1" as="geometry">
            <mxPoint x="1400" y="840" as="sourcePoint" />
            <mxPoint x="1400" y="40" as="targetPoint" />
          </mxGeometry>
        </mxCell>
        <mxCell id="qStdtEXJi0ipb3xtx4QY-80" value="" style="endArrow=none;html=1;rounded=0;" parent="1" edge="1">
          <mxGeometry width="50" height="50" relative="1" as="geometry">
            <mxPoint x="40" y="841" as="sourcePoint" />
            <mxPoint x="40" y="41" as="targetPoint" />
          </mxGeometry>
        </mxCell>
      </root>
    </mxGraphModel>
  </diagram>
</mxfile>
